<svg width="50" height="49" viewBox="0 0 50 49" fill="none" xmlns="http://www.w3.org/2000/svg">
<path d="M38.3333 15.4365H11.8345L10.8753 11.5996H5V13.638H9.31655L14.4724 35.4605H18.0695C17.1103 35.9401 16.3909 37.0193 16.3909 38.2183C16.3909 40.0169 17.8297 41.4557 19.6283 41.4557C21.4269 41.4557 22.7458 40.0169 22.7458 38.2183C22.7458 37.0193 22.0264 35.9401 21.0671 35.4605H28.0216C27.0623 35.9401 26.3429 37.0193 26.3429 38.2183C26.3429 40.0169 27.7818 41.4557 29.5803 41.4557C31.3789 41.4557 32.6978 40.0169 32.6978 38.2183C32.6978 37.0193 31.9784 35.9401 31.0192 35.4605H34.976V33.4221H16.0312L15.3118 30.6644H35.2158L38.3333 15.4365ZM19.5084 39.6572C18.6691 39.6572 18.0695 39.0576 18.0695 38.2183C18.0695 37.379 18.6691 36.7795 19.5084 36.7795C20.3477 36.7795 20.9472 37.379 20.9472 38.2183C20.9472 39.0576 20.3477 39.6572 19.5084 39.6572ZM29.4604 39.6572C28.6211 39.6572 28.0216 39.0576 28.0216 38.2183C28.0216 37.379 28.6211 36.7795 29.4604 36.7795C30.2998 36.7795 30.8993 37.379 30.8993 38.2183C30.8993 39.0576 30.1799 39.6572 29.4604 39.6572ZM14.952 28.626L12.3141 17.5948H35.9353L33.777 28.626H14.952Z" fill="white"/>
<rect x="28.5" y="0.5" width="21" height="21" rx="10.5" fill="#495867" stroke="#EB5201"/>
<path d="M42.1795 10.662C42.1795 11.418 42.0975 12.076 41.9335 12.636C41.7735 13.192 41.5495 13.652 41.2615 14.016C40.9775 14.38 40.6395 14.652 40.2475 14.832C39.8595 15.008 39.4395 15.096 38.9875 15.096C38.5355 15.096 38.1155 15.008 37.7275 14.832C37.3435 14.652 37.0095 14.38 36.7255 14.016C36.4415 13.652 36.2195 13.192 36.0595 12.636C35.8995 12.076 35.8195 11.418 35.8195 10.662C35.8195 9.902 35.8995 9.244 36.0595 8.688C36.2195 8.132 36.4415 7.672 36.7255 7.308C37.0095 6.944 37.3435 6.674 37.7275 6.498C38.1155 6.318 38.5355 6.228 38.9875 6.228C39.4395 6.228 39.8595 6.318 40.2475 6.498C40.6395 6.674 40.9775 6.944 41.2615 7.308C41.5495 7.672 41.7735 8.132 41.9335 8.688C42.0975 9.244 42.1795 9.902 42.1795 10.662ZM40.6495 10.662C40.6495 10.034 40.6035 9.514 40.5115 9.102C40.4195 8.69 40.2955 8.362 40.1395 8.118C39.9875 7.874 39.8115 7.704 39.6115 7.608C39.4115 7.508 39.2035 7.458 38.9875 7.458C38.7755 7.458 38.5695 7.508 38.3695 7.608C38.1735 7.704 37.9995 7.874 37.8475 8.118C37.6955 8.362 37.5735 8.69 37.4815 9.102C37.3935 9.514 37.3495 10.034 37.3495 10.662C37.3495 11.29 37.3935 11.81 37.4815 12.222C37.5735 12.634 37.6955 12.962 37.8475 13.206C37.9995 13.45 38.1735 13.622 38.3695 13.722C38.5695 13.818 38.7755 13.866 38.9875 13.866C39.2035 13.866 39.4115 13.818 39.6115 13.722C39.8115 13.622 39.9875 13.45 40.1395 13.206C40.2955 12.962 40.4195 12.634 40.5115 12.222C40.6035 11.81 40.6495 11.29 40.6495 10.662Z" fill="white"/>
</svg>
