<svg width="187" height="29" viewBox="0 0 187 29" fill="none" xmlns="http://www.w3.org/2000/svg">
<path d="M32.5854 23.978H37.0597V0.0488281C35.8731 0.0488281 34.7351 0.520218 33.896 1.3593C33.0569 2.19837 32.5854 3.33641 32.5854 4.52304V23.978Z" fill="white"/>
<path d="M99.76 23.978H104.236V0.0488281C103.049 0.0488281 101.911 0.520148 101.072 1.35917C100.232 2.19819 99.7606 3.33622 99.76 4.52304V23.978Z" fill="white"/>
<path d="M107.281 23.978H111.755V0.0488281C110.569 0.0488281 109.431 0.520218 108.591 1.3593C107.752 2.19837 107.281 3.33641 107.281 4.52304V23.978Z" fill="white"/>
<path d="M7.18202 4.29877H11.5296V0.0410156H7.15751C5.26193 0.0410156 3.44399 0.794036 2.10361 2.13442C0.763228 3.4748 0.0102104 5.29274 0.0102104 7.18833V28.7671H0C1.18524 28.7665 2.32194 28.2962 3.16099 27.459C4.00004 26.6219 4.47301 25.4863 4.47625 24.301V13.8864H9.52429V9.61639H4.47625V7.00454C4.47625 6.28692 4.76132 5.5987 5.26875 5.09127C5.77618 4.58384 6.46441 4.29877 7.18202 4.29877Z" fill="white"/>
<path d="M88.9798 24.409C82.2409 24.409 79.4473 19.7265 79.727 14.9419C79.9456 11.2273 82.8045 6.99609 88.7122 6.99609C95.3919 6.99609 98.0732 13.0488 97.1011 17.5333H84.5423C84.7935 19.2159 86.4251 20.3738 88.6265 20.5229C91.2628 20.6985 92.9618 18.7197 92.9618 18.7197L96.3619 20.5147C94.7058 23.2797 92.0674 24.409 88.9798 24.409ZM88.7 10.8863C85.5347 10.8658 84.5648 13.5553 84.5831 14.319H92.6739C92.7474 13.6472 92.098 10.9067 88.7 10.8863Z" fill="white"/>
<path d="M77.3787 13.5799C76.6578 10.5596 74.824 8.4277 71.8548 7.45362C69.1572 6.53876 66.2677 7.07379 64.632 8.6237V0C64.0442 0 63.4622 0.1158 62.9193 0.34077C62.3763 0.56575 61.883 0.8955 61.4675 1.31119C61.052 1.72687 60.7225 2.22035 60.4977 2.76342C60.273 3.30649 60.1575 3.88852 60.1577 4.47625V23.9394H63.9662L64.0949 22.7856C67.6175 25.6139 73.3006 24.3294 75.5776 21.4276C77.3011 19.2303 78.0669 16.4653 77.3787 13.5799ZM72.8861 17.1658C72.349 18.9199 71.1115 20.0002 69.2736 20.2105C67.5317 20.4147 65.9103 19.8491 64.7361 18.4155V13.051C65.0997 12.5557 65.5574 12.137 66.083 11.8188C66.6086 11.5006 67.1918 11.2892 67.7992 11.1968C72.0264 10.7638 73.6376 14.2946 72.884 17.1658H72.8861Z" fill="white"/>
<path d="M29.5818 7.86434C28.6172 7.8622 27.6807 8.18927 26.9271 8.79147C24.7257 7.20067 21.5052 6.37362 17.9419 7.57845C14.9993 8.55657 13.1777 10.6784 12.4569 13.6823C11.7748 16.5412 12.5365 19.298 14.2498 21.4831C16.4961 24.3542 22.1159 25.6346 25.6222 22.8676L25.9755 23.9785H29.5818V7.86434ZM25.1586 18.5833C23.8925 20.0454 22.2589 20.3762 20.5211 20.1802C18.6832 19.976 17.4579 18.9897 16.927 17.2437C16.1796 14.3848 17.7806 10.7886 21.9812 11.2195C24.2887 11.5789 25.1586 13.2616 25.1586 13.2616V18.5833Z" fill="white"/>
<path d="M132.09 7.86825C131.126 7.8661 130.189 8.19319 129.436 8.79539C127.234 7.20457 124.014 6.37752 120.451 7.58235C117.508 8.56049 115.686 10.6823 114.97 13.6821C114.283 16.5533 115.045 19.3019 116.758 21.4849C119.005 24.3581 124.625 25.6385 128.131 22.8715L128.484 23.9824H132.09V7.86825ZM127.667 18.5933C126.407 20.0493 124.759 20.3801 123.03 20.1841C121.192 19.9799 119.967 18.9915 119.436 17.2476C118.688 14.3988 120.289 10.7925 124.49 11.2234C126.797 11.5828 127.667 13.2655 127.667 13.2655V18.5933Z" fill="white"/>
<path d="M54.4973 8.79147C52.296 7.20067 49.0756 6.37362 45.5122 7.57845C42.5675 8.55657 40.7459 10.6784 40.0251 13.6823C39.3389 16.5535 40.1006 19.3021 41.8139 21.4871C44.0602 24.3583 49.6801 25.6387 53.1863 22.8717L53.5396 23.9826H57.1459V7.86434C56.1834 7.86359 55.2493 8.19057 54.4973 8.79147ZM52.7269 18.5833C51.4608 20.0454 49.8271 20.3762 48.0893 20.1802C46.2514 19.976 45.0261 18.9897 44.4952 17.2437C43.7478 14.3848 45.3488 10.7886 49.5494 11.2195C51.8569 11.5789 52.7269 13.2616 52.7269 13.2616V18.5833Z" fill="white"/>
<path d="M158.29 10.1836C154.32 10.1836 151.327 13.1426 151.327 17.0675C151.327 20.9924 154.32 23.9779 158.29 23.9779C162.26 23.9779 165.28 21.0087 165.28 17.0675C165.28 13.1262 162.274 10.1836 158.29 10.1836ZM158.29 20.6472C156.334 20.6472 154.917 19.1422 154.917 17.0654C154.917 15.0397 156.367 13.5122 158.29 13.5122C160.214 13.5122 161.694 15.0397 161.694 17.0654C161.694 19.0912 160.23 20.6472 158.288 20.6472H158.29Z" fill="white"/>
<path d="M181.778 10.184C179.722 10.0247 177.966 11.0907 176.984 11.6992C175.858 10.7905 174.607 10.184 173.001 10.184C170.016 10.184 166.969 11.9749 166.969 11.9749V23.6638H170.453V13.9741C171.015 13.5657 172.029 13.5126 172.597 13.5126C173.788 13.5126 175.176 14.4458 175.176 16.0223V23.6638H178.648V15.1442C178.664 14.7895 178.601 14.4357 178.462 14.1089C180.786 12.8122 183.506 13.8005 183.506 16.0223V23.6638H186.99V15.9692C187 12.2322 184.108 10.3616 181.778 10.184Z" fill="white"/>
<path d="M141.976 16.5101C142.248 14.9111 143.644 13.5123 145.301 13.5123C146.486 13.526 147.638 13.9102 148.594 14.6109L150.375 11.8153C148.948 10.768 147.228 10.1964 145.458 10.1816C142.178 10.1816 139.55 12.1135 138.664 14.9275C139.912 15.0748 141.077 15.6313 141.976 16.5101Z" fill="white"/>
<path d="M148.686 19.4736C147.721 20.2327 146.529 20.6461 145.301 20.6478C144.732 20.6448 144.176 20.4836 143.693 20.1822C143.704 20.3232 143.71 20.4661 143.71 20.6111C143.71 21.6467 143.428 22.6627 142.893 23.5496C143.715 23.8369 144.581 23.9819 145.452 23.9785C148.719 23.9785 150.543 22.0896 150.543 22.0896L148.686 19.4736Z" fill="white"/>
<path d="M137.988 23.8173C139.757 23.8173 141.192 22.3828 141.192 20.6132C141.192 18.8437 139.757 17.4092 137.988 17.4092C136.218 17.4092 134.784 18.8437 134.784 20.6132C134.784 22.3828 136.218 23.8173 137.988 23.8173Z" fill="white"/>
</svg>
